<?xml version="1.0" encoding="UTF-8" standalone="no"?>
<!-- Created with Inkscape (http://www.inkscape.org/) -->

<svg
   xmlns:dc="http://purl.org/dc/elements/1.1/"
   xmlns:cc="http://creativecommons.org/ns#"
   xmlns:rdf="http://www.w3.org/1999/02/22-rdf-syntax-ns#"
   xmlns:svg="http://www.w3.org/2000/svg"
   xmlns="http://www.w3.org/2000/svg"
   xmlns:sodipodi="http://sodipodi.sourceforge.net/DTD/sodipodi-0.dtd"
   xmlns:inkscape="http://www.inkscape.org/namespaces/inkscape"
   version="1.1"
   id="svg2"
   xml:space="preserve"
   width="564.68317"
   height="564.6933"
   viewBox="0 0 564.68316 564.6933"
   sodipodi:docname="logo-white.svg"
   inkscape:version="0.92.3 (2405546, 2018-03-11)"><metadata
     id="metadata8"><rdf:RDF><cc:Work
         rdf:about=""><dc:format>image/svg+xml</dc:format><dc:type
           rdf:resource="http://purl.org/dc/dcmitype/StillImage" /><dc:title></dc:title></cc:Work></rdf:RDF></metadata><defs
     id="defs6" /><sodipodi:namedview
     pagecolor="#ffffff"
     bordercolor="#666666"
     borderopacity="1"
     objecttolerance="10"
     gridtolerance="10"
     guidetolerance="10"
     inkscape:pageopacity="0"
     inkscape:pageshadow="2"
     inkscape:window-width="2426"
     inkscape:window-height="1329"
     id="namedview4"
     showgrid="false"
     inkscape:zoom="1.2720315"
     inkscape:cx="136.90256"
     inkscape:cy="261.62801"
     inkscape:window-x="134"
     inkscape:window-y="55"
     inkscape:window-maximized="1"
     inkscape:current-layer="g10"
     fit-margin-top="10"
     fit-margin-right="10"
     fit-margin-bottom="10"
     fit-margin-left="10" /><g
     id="g10"
     inkscape:groupmode="layer"
     inkscape:label="ink_ext_XXXXXX"
     transform="matrix(1.3333333,0,0,-1.3333333,-78.054131,674.12532)"><g
       id="g948"
       style="fill:#ffffff;fill-opacity:0.9482289"
       transform="translate(0,-58.5)"><path
         d="m 305.736,249.312 c -11.117,-3.824 -23.029,-5.926 -35.441,-5.926 -41.774,0 -78.044,23.522 -96.319,58.036 h -43.359 c 19.634,-53.854 69.491,-93.166 129.065,-97.364 l 46.054,-55.984 v 101.238"
         style="fill:#ffffff;fill-opacity:0.9482289;fill-rule:nonzero;stroke:none;stroke-width:0.1"
         id="path62"
         inkscape:connector-curvature="0" /><path
         d="m 234.852,455.356 c 11.119,3.824 23.03,5.928 35.443,5.928 41.775,0 78.043,-23.524 96.32,-58.038 h 43.354 c -19.629,53.847 -69.487,93.162 -129.057,97.366 l -46.06,55.982 V 455.356"
         style="fill:#ffffff;fill-opacity:0.9482289;fill-rule:nonzero;stroke:none;stroke-width:0.1"
         id="path70"
         inkscape:connector-curvature="0" /><path
         d="m 167.276,316.895 c -3.824,11.114 -5.931,23.028 -5.931,35.439 0,41.775 23.525,78.041 58.041,96.322 v 43.356 C 165.533,472.378 126.224,422.522 122.02,362.95 L 66.0406,316.895 H 167.276"
         style="fill:#ffffff;fill-opacity:0.9482289;fill-rule:nonzero;stroke:none;stroke-width:0.1"
         id="path72"
         inkscape:connector-curvature="0" /><path
         d="m 373.318,387.775 c 3.823,-11.114 5.926,-23.028 5.926,-35.441 0,-41.778 -23.521,-78.039 -58.035,-96.321 v -43.355 c 53.85,19.631 93.16,69.486 97.367,129.06 l 55.977,46.057 H 373.318"
         style="fill:#ffffff;fill-opacity:0.9482289;fill-rule:nonzero;stroke:none;stroke-width:0.1"
         id="path74"
         inkscape:connector-curvature="0" /></g><path
       d="m 1365.2043,1057.102 h -137.8878 v 77.2026 c 21.4559,4.4913 43.678,6.9391 66.4748,6.9391 24.5635,0 48.4246,-2.8735 71.413,-8.0672 z m 0,-75.41475 h -137.8878 v 54.87415 h 137.8878 z m 0,-66.43221 -68.9652,-68.96518 -68.9226,68.92261 v 45.93422 h 137.8878 z m 0,-202.68101 v -50.46804 h -137.8878 v 48.6162 l 68.9226,68.92261 z m 0,-119.4758 h -137.8878 v 48.4672 h 137.8878 z m -0.085,-88.63303 c -22.435,-4.89568 -47.4455,-7.89694 -71.3279,-7.89694 -22.7968,0 -45.0189,2.40527 -66.4748,6.89652 v 69.13547 h 137.8878 z m -184.887,224.11556 v -211.3868 c -280.66302,129.87081 -244.06081,504.97874 0,603.38154 V 896.05547 l 82.6731,-83.0775 -83.2478,-83.2265 1.1707,-1.17071 z M 1412.33,519.10966 v 211.9828 l -82.7795,81.88551 82.7795,83.0775 v 222.58303"
       style="opacity:0.60000598;fill:#47657a;fill-opacity:1;fill-rule:nonzero;stroke:none;stroke-width:21.28554916"
       id="path84566"
       inkscape:connector-curvature="0"
       sodipodi:nodetypes="cccscccccccccccccccccccccccccsccccccccccccccccc" /><g
       id="g4026-7-9"
       transform="matrix(0.08783597,0,0,-0.08783597,465.36454,342.41682)"
       style="fill:#ffffff;fill-opacity:0.9482289"
       inkscape:export-filename="/home/marpiech/rsync/workspace/genomestore/src/main/webapp/css/images/seqinspectorlogo.png"
       inkscape:export-xdpi="6.7250743"
       inkscape:export-ydpi="6.7250743"><rect
         y="9.585906"
         x="-2301.9778"
         height="1062.4513"
         width="177.07521"
         id="rect3878-8-2"
         style="fill:#ffffff;fill-opacity:0.9482289;stroke:none" /><rect
         transform="rotate(90)"
         y="1682.2146"
         x="462.11145"
         height="1062.4513"
         width="177.07521"
         id="rect3878-7-6-6"
         style="fill:#ffffff;fill-opacity:0.9482289;stroke:none" /><rect
         transform="rotate(45)"
         y="588.54004"
         x="-916.49994"
         height="1062.4513"
         width="177.07521"
         id="rect3878-7-2-4-2"
         style="fill:#ffffff;fill-opacity:0.9482289;stroke:none" /><rect
         transform="rotate(45)"
         y="588.5401"
         x="-1612.1171"
         height="1062.4513"
         width="177.07521"
         id="rect3878-7-2-2-7-9"
         style="fill:#ffffff;fill-opacity:0.9482289;stroke:none" /><rect
         transform="rotate(45)"
         y="2251.0649"
         x="-923.45612"
         height="1062.4513"
         width="177.07521"
         id="rect3878-7-2-2-6-2-2"
         style="fill:#ffffff;fill-opacity:0.9482289;stroke:none" /><rect
         transform="rotate(45)"
         y="2271.9336"
         x="-1612.1171"
         height="1062.4513"
         width="177.07521"
         id="rect3878-7-2-2-6-1-3-6"
         style="fill:#ffffff;fill-opacity:0.9482289;stroke:none" /><rect
         transform="rotate(-45)"
         y="-1565.8307"
         x="-1113.9341"
         height="666.31488"
         width="77.253899"
         id="rect3970-3-5"
         style="fill:#ffffff;fill-opacity:0.9482289;stroke:none" /><rect
         transform="rotate(-45)"
         y="-1487.3048"
         x="-1397.3103"
         height="666.31488"
         width="77.253899"
         id="rect3970-7-2-1"
         style="fill:#ffffff;fill-opacity:0.9482289;stroke:none" /><rect
         transform="rotate(-45)"
         y="-1487.3048"
         x="-2858.5759"
         height="666.31488"
         width="77.253899"
         id="rect3970-7-1-2-34"
         style="fill:#ffffff;fill-opacity:0.9482289;stroke:none" /><rect
         transform="rotate(-45)"
         y="-1500.9614"
         x="-2599.0989"
         height="666.31488"
         width="77.253899"
         id="rect3970-7-1-8-4-6"
         style="fill:#ffffff;fill-opacity:0.9482289;stroke:none" /></g></g></svg>