<?xml version="1.0" encoding="iso-8859-1"?>
<!-- Generator: Adobe Illustrator 19.0.0, SVG Export Plug-In . SVG Version: 6.00 Build 0)  -->
<svg version="1.1" id="Capa_1" xmlns="http://www.w3.org/2000/svg" xmlns:xlink="http://www.w3.org/1999/xlink" x="0px" y="0px"
	 viewBox="0 0 512 512" style="enable-background:new 0 0 512 512;" xml:space="preserve">
<path style="fill:#88C9DB;" d="M511.998,271.738v116.223c0,66.214-53.676,119.89-119.89,119.89H169.954
	c-66.215,0-119.89-53.676-119.89-119.89v-73.95h66.841v51.485c0,10.209,4.138,19.456,10.825,26.143
	c6.687,6.687,15.935,10.825,26.143,10.825c20.417,0,36.968-16.551,36.968-36.968v-93.758c0-71.314,57.814-129.127,129.138-129.127
	h62.881C454.184,142.611,511.998,200.425,511.998,271.738z"/>
<g>
	<path style="fill:#56A0BF;" d="M85.641,387.964v-68.729H50.063v68.729c0,66.213,53.677,119.89,119.89,119.89h35.578
		C139.318,507.855,85.641,454.179,85.641,387.964z"/>
	<path style="fill:#56A0BF;" d="M355.557,142.611c-71.324,0-129.138,57.814-129.138,129.127v93.758
		c0,20.417-16.551,36.968-36.968,36.968c-6.447,0-30.302,2.905-35.578,0c20.417,0,36.968-16.551,36.968-36.968v-93.758
		c0-71.314,57.814-129.127,129.138-129.127H355.557z"/>
</g>
<path style="fill:#F2FBFF;" d="M512,387.958c0,59.214-42.924,108.397-99.358,118.135c-6.666,1.16-13.531,1.755-20.532,1.755H169.956
	c-65.462,0-118.668-52.464-119.859-117.633c1.202,42.391,35.934,76.381,78.607,76.381h48.671c8.902,0,17.45-1.473,25.433-4.2
	c11.483-3.929,21.775-10.428,30.176-18.829c14.231-14.231,23.029-33.896,23.029-55.609c0-22.946,15.966-42.161,37.397-47.135
	c3.542-0.825,7.22-1.264,11.013-1.264h159.178c4.326,0,8.516,0.564,12.497,1.63c14.973,3.991,27.073,14.973,32.621,29.236
	C510.84,375.858,512,381.772,512,387.958z"/>
<path style="fill:#C9E4FF;" d="M511.998,342.508v45.453c0,66.214-53.676,119.89-119.89,119.89H169.954
	c-65.462,0-118.668-52.464-119.859-117.633c1.202,42.391,35.934,76.381,78.607,76.381h48.671c8.902,0,17.45-1.473,25.433-4.2
	h189.302c56.602,0,104.039-39.215,116.609-91.971C510.869,361.473,511.998,352.121,511.998,342.508z"/>
<g>
	<path style="fill:#393B85;" d="M289.22,303.552c-6.96,0-10.477-8.838-5.326-13.589c5.291-4.881,14.173-0.274,13.074,6.905
		C296.388,300.654,293.059,303.552,289.22,303.552z"/>
	<path style="fill:#393B85;" d="M481.218,303.552c-3.215,0-6.138-2.03-7.301-5.017c-1.228-3.152-0.213-6.885,2.454-8.971
		c5.587-4.371,13.968,0.672,12.536,7.687C488.168,300.874,484.926,303.552,481.218,303.552z"/>
</g>
<g>
	<path style="fill:#C9E4FF;" d="M242.879,507.848h-37.992c50.876-14.378,88.523-64.292,88.523-123.495v-43.53
		c3.542-0.825,7.22-1.264,11.013-1.264h4.66v44.794C309.083,436.879,282.47,482.896,242.879,507.848z"/>
	<path style="fill:#C9E4FF;" d="M298.55,507.848h-38.023c50.896-14.367,88.554-64.281,88.554-123.495v-44.794h15.673v44.794
		C364.754,436.879,338.141,482.896,298.55,507.848z"/>
	<path style="fill:#C9E4FF;" d="M354.222,507.848h-38.023c50.896-14.367,88.554-64.281,88.554-123.495v-44.794h15.673v44.794
		C420.426,436.879,393.813,482.896,354.222,507.848z"/>
	<path style="fill:#C9E4FF;" d="M476.098,341.189v43.164c0,51.304-25.391,96.401-63.456,121.74
		c-6.666,1.16-13.531,1.755-20.532,1.755H371.87c50.896-14.367,88.554-64.281,88.554-123.495v-44.794h3.176
		C467.927,339.559,472.117,340.123,476.098,341.189z"/>
</g>
<g>
	<path style="fill:#56A0BF;" d="M168.43,270.553h-41.045c-23.842,0-43.17,19.327-43.17,43.17v14.033h41.045
		c23.842,0,43.17-19.327,43.17-43.17V270.553z"/>
	<path style="fill:#56A0BF;" d="M41.045,270.553H0v14.033c0,23.842,19.327,43.17,43.17,43.17h41.045v-14.033
		C84.215,289.88,64.887,270.553,41.045,270.553z"/>
</g>
<g>
	<path style="fill:#C9E4FF;" d="M339.104,129.527c-4.329,0-7.837-3.509-7.837-7.837V48.812c0-15.987-13.006-28.994-28.994-28.994
		c-15.988,0-28.994,13.007-28.994,28.994c0,4.328-3.508,7.837-7.837,7.837s-7.837-3.509-7.837-7.837
		c0-24.629,20.038-44.667,44.667-44.667s44.667,20.038,44.667,44.667v72.878C346.94,126.018,343.432,129.527,339.104,129.527z"/>
	<path style="fill:#C9E4FF;" d="M367.314,129.527c-4.329,0-7.837-3.509-7.837-7.837V48.812c0-24.629,20.038-44.667,44.667-44.667
		c24.629,0,44.667,20.038,44.667,44.667c0,4.328-3.508,7.837-7.837,7.837c-4.329,0-7.837-3.509-7.837-7.837
		c0-15.987-13.006-28.994-28.994-28.994c-15.988,0-28.993,13.007-28.993,28.994v72.878
		C375.151,126.018,371.643,129.527,367.314,129.527z"/>
</g>
<g>
</g>
<g>
</g>
<g>
</g>
<g>
</g>
<g>
</g>
<g>
</g>
<g>
</g>
<g>
</g>
<g>
</g>
<g>
</g>
<g>
</g>
<g>
</g>
<g>
</g>
<g>
</g>
<g>
</g>
</svg>
